{"title":"The.Reluctant.Fundamentalist.2012.BRRip.XviD.Eng subs hardcoded.","uid":8843365,"size":1122294290,"categoryP":"video","categoryS":"movies","magnet":"?xt=urn:btih:46056c5a2cd35d3080e2905791119f28b99d5c9b&amp;dn=The.Reluctant.Fundamentalist.2012.BRRip.XviD.Eng+subs+hardcoded.&amp;tr=udp%3A%2F%2Ftracker.openbittorrent.com%3A80&amp;tr=udp%3A%2F%2Fopen.demonii.com%3A1337&amp;tr=udp%3A%2F%2Ftracker.coppersurfer.tk%3A6969&amp;tr=udp%3A%2F%2Fexodus.desync.com%3A6969","seeders":1,"leechers":0,"uploader":"steve8852","files":1,"time":1377307061,"description":" &lt;a href=&quot;http://www.imdb.com/title/tt2032557/?ref_=sr_1&quot; rel=&quot;nofollow&quot; target=&quot;_NEW&quot;&gt;http://www.imdb.com/title/tt2032557/?ref_=sr_1&lt;/a&gt;\n\nA young Pakistani man is chasing corporate success on Wall Street. He finds himself embroiled in a conflict between his American Dream, a hostage crisis, and the enduring call of his family's homeland. \n\nRiz Ahmed, Liev Schreiber, Kiefer Sutherland\n\nFormat                                   : AVI\nFormat/Info                              : Audio Video Interleave\nFile size                                : 1.05 GiB\nDuration                                 : 2h 10mn\nOverall bit rate                         : 1 150 Kbps\nWriting library                          : VirtualDub build 34703/release\n\nVideo\nID                                       : 0\nFormat                                   : MPEG-4 Visual\nFormat profile                           : Advanced Simple@L5\nFormat settings, BVOP                    : 2\nFormat settings, QPel                    : No\nFormat settings, GMC                     : No warppoints\nFormat settings, Matrix                  : Default (H.263)\nMuxing mode                              : Packed bitstream\nCodec ID                                 : XVID\nCodec ID/Hint                            : XviD\nDuration                                 : 2h 10mn\nBit rate                                 : 1 012 Kbps\nWidth                                    : 720 pixels\nHeight                                   : 304 pixels\nDisplay aspect ratio                     : 2.35:1\nFrame rate                               : 23.976 fps\nColor space                              : YUV\nChroma subsampling                       : 4:2:0\nBit depth                                : 8 bits\nScan type                                : Progressive\nCompression mode                         : Lossy\nBits/(Pixel*Frame)                       : 0.193\nStream size                              : 942 MiB (88%)\nWriting library                          : XviD 64\n\nAudio\nID                                       : 1\nFormat                                   : AC-3\nFormat/Info                              : Audio Coding 3\nMode extension                           : CM (complete main)\nFormat settings, Endianness              : Big\nCodec ID                                 : 2000\nDuration                                 : 2h 10mn\nBit rate mode                            : Constant\nBit rate                                 : 128 Kbps\nChannel(s)                               : 2 channels\nChannel positions                        : Front: L R\nSampling rate                            : 48.0 KHz\nBit depth                                : 16 bits\nCompression mode                         : Lossy\nStream size                              : 119 MiB (11%)\nAlignment                                : Aligned on interleaves\nInterleave, duration                     : 42 ms (1.00 video frame)\nInterleave, preload duration             : 512 ms\n\nSource:  The.Reluctant.Fundamentalist.2012.LIMITED.720p.BluRay.x264-GECKOS\n\nRe-encode to XviD an English subtitles hardcoded where needed.\n\n","torrent":{"xt":"urn:btih:46056c5a2cd35d3080e2905791119f28b99d5c9b","amp;dn":"The.Reluctant.Fundamentalist.2012.BRRip.XviD.Eng+subs+hardcoded.","amp;tr":["udp%3A%2F%2Ftracker.openbittorrent.com%3A80","udp%3A%2F%2Fopen.demonii.com%3A1337","udp%3A%2F%2Ftracker.coppersurfer.tk%3A6969","udp%3A%2F%2Fexodus.desync.com%3A6969"],"infoHash":"46056c5a2cd35d3080e2905791119f28b99d5c9b","infoHashBuffer":{"type":"Buffer","data":[70,5,108,90,44,211,93,48,128,226,144,87,145,17,159,40,185,157,92,155]},"announce":[],"urlList":[]}}